# xmcd CD database file
#
# Track frame offsets:
#	150
#	12160
#	24970
#	38037
#	51587
#	65207
#	78965
#	91362
#	104847
#	117975
#	130760
#	144080
#	157802
#	173000
#	186640
#	199952
#	213842
#	225842
#	237870
#	251607
#	265372
#	278320
#
# Disc length: 3891 seconds
#
# Revision: 0
# Processed by: cddbd v1.5.2PL0 Copyright (c) Steve Scherf et al.
# Submitted via: CDex 1.51
#
DISCID=2a0f3116
DTITLE=Various Artist - New York Jazz 1923-31
DYEAR=1900
DGENRE=Jazz
TTITLE0=Mamma Goes Where Papa Goes - The Georgians
TTITLE1=Somebody's Wrong
TTITLE2=It Ain't Gonna Rain No Mo' - Original Memphis Five
TTITLE3=Red Hot Mamma
TTITLE4=Alabamy Bound - The Goofus Five
TTITLE5=Deep Sea Blues
TTITLE6=Hard To Get Gertie - Original Indiana Five
TTITLE7=Pensacola
TTITLE8=Clarinet Marmelade - Phil Napoleon and his Orchestra
TTITLE9=Penn Beach Blues - Joe Venuti's Blue Four
TTITLE10=Four String Joe
TTITLE11=Crazy Rhythm - Miff Mole's Molers
TTITLE12=You Took Advantage Of Me
TTITLE13=Bugle Call Rag - Ed Lang And His Orchestra
TTITLE14=Freeze An' Melt
TTITLE15=Hot Heels
TTITLE16=High And Dry (Take 57) - Irving Mills And His Hotsy Totsy Gang
TTITLE17=High And Dry (Take 58)
TTITLE18=Barbaric
TTITLE19=Just A Crazy Song - Red Nichols And His Five Pennies
TTITLE20=You Rascal, You
TTITLE21=Moan, You Moaners!
EXTD=
EXTT0=
EXTT1=
EXTT2=
EXTT3=
EXTT4=
EXTT5=
EXTT6=
EXTT7=
EXTT8=
EXTT9=
EXTT10=
EXTT11=
EXTT12=
EXTT13=
EXTT14=
EXTT15=
EXTT16=
EXTT17=
EXTT18=
EXTT19=
EXTT20=
EXTT21=
PLAYORDER=
